<svg width="506" height="173" viewBox="0 0 506 173" fill="none" xmlns="http://www.w3.org/2000/svg">
<path d="M3.40625 173C1.25 173 0.171875 171.922 0.171875 169.766V3.77749C0.171875 1.62124 1.25 0.543117 3.40625 0.543117H81.29C83.2738 0.543117 84.9988 1.23312 86.465 2.61312L112.34 28.4881C113.72 29.9544 114.41 31.6794 114.41 33.6631V60.8319C114.41 61.6944 114.238 62.3844 113.893 62.9019C113.548 63.4194 113.03 64.0231 112.34 64.7131L92.0281 82.8256L90.0875 87.6125L92.0281 91.1056L112.34 109.218C113.03 109.908 113.548 110.512 113.893 111.029C114.238 111.461 114.41 112.151 114.41 113.099V139.751C114.41 141.821 113.72 143.546 112.34 144.926L86.465 170.801C84.9988 172.267 83.2738 173 81.29 173H3.40625ZM54.8975 143.891C62.0563 143.891 66.9294 142.467 69.5169 139.621C72.1906 136.775 73.5275 131.384 73.5275 123.449C73.5275 115.428 72.1906 109.994 69.5169 107.148C66.9294 104.302 62.0563 102.879 54.8975 102.879C47.825 102.879 42.9519 104.302 40.2781 107.148C37.6906 109.994 36.3969 115.428 36.3969 123.449C36.3969 131.384 37.6906 136.775 40.2781 139.621C42.9519 142.467 47.825 143.891 54.8975 143.891ZM54.8975 70.535C62.0563 70.535 66.9294 69.1119 69.5169 66.2656C72.1906 63.4194 73.5275 58.0287 73.5275 50.0937C73.5275 42.1587 72.1906 36.7681 69.5169 33.9219C66.9294 31.0756 62.0563 29.6525 54.8975 29.6525C47.825 29.6525 42.9519 31.0756 40.2781 33.9219C37.6906 36.7681 36.3969 42.1587 36.3969 50.0937C36.3969 58.0287 37.6906 63.4194 40.2781 66.2656C42.9519 69.1119 47.825 70.535 54.8975 70.535ZM128.617 173C126.461 173 125.383 171.922 125.383 169.766V3.77749C125.383 1.62124 126.461 0.543117 128.617 0.543117H165.23C167.386 0.543117 168.464 1.62124 168.464 3.77749V138.457H201.067C203.223 138.457 204.301 139.535 204.301 141.691V169.766C204.301 171.922 203.223 173 201.067 173H128.617ZM206.569 173C204.413 173 203.335 171.922 203.335 169.766V49.835C203.335 48.7137 203.766 47.42 204.629 45.9537L235.291 2.48374C236.239 1.18999 237.619 0.543117 239.431 0.543117H282.254C284.151 0.543117 285.531 1.18999 286.394 2.48374L317.185 45.9537C318.048 47.1612 318.479 48.455 318.479 49.835V169.766C318.479 171.922 317.401 173 315.244 173H278.631C276.475 173 275.397 171.922 275.397 169.766V114.781H246.546V169.766C246.546 171.922 245.468 173 243.312 173H206.569ZM260.907 86.9656C268.842 86.9656 274.189 85.2406 276.949 81.7906C279.796 78.2544 281.219 71.57 281.219 61.7375C281.219 51.905 279.796 45.2637 276.949 41.8137C274.189 38.2775 268.842 36.5094 260.907 36.5094C253.058 36.5094 247.711 38.2775 244.864 41.8137C242.104 45.2637 240.724 51.905 240.724 61.7375C240.724 71.57 242.104 78.2544 244.864 81.7906C247.711 85.2406 253.058 86.9656 260.907 86.9656ZM327.43 173C325.274 173 324.196 171.922 324.196 169.766V145.443C324.196 144.322 324.239 143.416 324.325 142.726C324.497 142.036 325.015 141.476 325.877 141.044L359.774 125.519V102.491L326.395 81.7906C324.929 80.9281 324.196 79.6344 324.196 77.9094V30.4288C324.196 29.0487 324.282 28.0569 324.454 27.4531C324.627 26.7631 325.274 26.03 326.395 25.2537L360.421 2.22499C361.283 1.70749 362.059 1.31936 362.749 1.06061C363.526 0.715615 364.474 0.543117 365.596 0.543117H400.527C402.683 0.543117 403.761 1.62124 403.761 3.77749V25.7712C403.761 27.6687 403.114 28.9625 401.821 29.6525L367.924 43.625V67.5594L401.821 86.9656C403.114 87.5694 403.761 88.9494 403.761 91.1056V147.384C403.761 148.074 403.632 148.807 403.373 149.583C403.201 150.359 402.769 150.92 402.079 151.265L361.456 171.447C360.938 171.706 360.291 172.051 359.515 172.482C358.825 172.827 358.135 173 357.445 173H327.43ZM439.329 173C437.173 173 436.095 171.922 436.095 169.766V34.9569H413.454C411.298 34.9569 410.22 33.8787 410.22 31.7225V3.77749C410.22 1.62124 411.298 0.543117 413.454 0.543117H501.817C503.974 0.543117 505.052 1.62124 505.052 3.77749V31.7225C505.052 33.8787 503.974 34.9569 501.817 34.9569H479.177V169.766C479.177 171.922 478.099 173 475.942 173H439.329Z" fill="#070707"/>
</svg>
